<svg width="74" height="48" viewBox="0 0 74 48" fill="none" xmlns="http://www.w3.org/2000/svg">
<path d="M6 36V24C6 19.2261 7.89642 14.6477 11.2721 11.2721C14.6477 7.89642 19.2261 6 24 6C28.7739 6 33.3523 7.89642 36.7279 11.2721C40.1036 14.6477 42 19.2261 42 24V36M42 38C42 39.0609 41.5786 40.0783 40.8284 40.8284C40.0783 41.5786 39.0609 42 38 42H36C34.9391 42 33.9217 41.5786 33.1716 40.8284C32.4214 40.0783 32 39.0609 32 38V32C32 30.9391 32.4214 29.9217 33.1716 29.1716C33.9217 28.4214 34.9391 28 36 28H42V38ZM6 38C6 39.0609 6.42143 40.0783 7.17157 40.8284C7.92172 41.5786 8.93913 42 10 42H12C13.0609 42 14.0783 41.5786 14.8284 40.8284C15.5786 40.0783 16 39.0609 16 38V32C16 30.9391 15.5786 29.9217 14.8284 29.1716C14.0783 28.4214 13.0609 28 12 28H6V38Z" stroke="#1E1E1E" stroke-width="4" stroke-linecap="round" stroke-linejoin="round"/>
<path d="M32 36V24C32 19.2261 33.8964 14.6477 37.2721 11.2721C40.6477 7.89642 45.2261 6 50 6C54.7739 6 59.3523 7.89642 62.7279 11.2721C66.1036 14.6477 68 19.2261 68 24V36M68 38C68 39.0609 67.5786 40.0783 66.8284 40.8284C66.0783 41.5786 65.0609 42 64 42H62C60.9391 42 59.9217 41.5786 59.1716 40.8284C58.4214 40.0783 58 39.0609 58 38V32C58 30.9391 58.4214 29.9217 59.1716 29.1716C59.9217 28.4214 60.9391 28 62 28H68V38ZM32 38C32 39.0609 32.4214 40.0783 33.1716 40.8284C33.9217 41.5786 34.9391 42 36 42H38C39.0609 42 40.0783 41.5786 40.8284 40.8284C41.5786 40.0783 42 39.0609 42 38V32C42 30.9391 41.5786 29.9217 40.8284 29.1716C40.0783 28.4214 39.0609 28 38 28H32V38Z" stroke="#1E1E1E" stroke-width="4" stroke-linecap="round" stroke-linejoin="round"/>
<path d="M9.25 34.5V24C9.25 19.8228 10.9094 15.8168 13.8631 12.8631C16.8168 9.90937 20.8228 8.25 25 8.25C29.1772 8.25 33.1832 9.90937 36.1369 12.8631C39.0906 15.8168 40.75 19.8228 40.75 24V34.5M40.75 36.25C40.75 37.1783 40.3813 38.0685 39.7249 38.7249C39.0685 39.3813 38.1783 39.75 37.25 39.75H35.5C34.5717 39.75 33.6815 39.3813 33.0251 38.7249C32.3687 38.0685 32 37.1783 32 36.25V31C32 30.0717 32.3687 29.1815 33.0251 28.5251C33.6815 27.8687 34.5717 27.5 35.5 27.5H40.75V36.25ZM9.25 36.25C9.25 37.1783 9.61875 38.0685 10.2751 38.7249C10.9315 39.3813 11.8217 39.75 12.75 39.75H14.5C15.4283 39.75 16.3185 39.3813 16.9749 38.7249C17.6313 38.0685 18 37.1783 18 36.25V31C18 30.0717 17.6313 29.1815 16.9749 28.5251C16.3185 27.8687 15.4283 27.5 14.5 27.5H9.25V36.25Z" stroke="#F2994A" stroke-width="4" stroke-linecap="round" stroke-linejoin="round"/>
<path d="M33.25 34.5V24C33.25 19.8228 34.9094 15.8168 37.8631 12.8631C40.8168 9.90937 44.8228 8.25 49 8.25C53.1772 8.25 57.1832 9.90937 60.1369 12.8631C63.0906 15.8168 64.75 19.8228 64.75 24V34.5M64.75 36.25C64.75 37.1783 64.3813 38.0685 63.7249 38.7249C63.0685 39.3813 62.1783 39.75 61.25 39.75H59.5C58.5717 39.75 57.6815 39.3813 57.0251 38.7249C56.3687 38.0685 56 37.1783 56 36.25V31C56 30.0717 56.3687 29.1815 57.0251 28.5251C57.6815 27.8687 58.5717 27.5 59.5 27.5H64.75V36.25ZM33.25 36.25C33.25 37.1783 33.6187 38.0685 34.2751 38.7249C34.9315 39.3813 35.8217 39.75 36.75 39.75H38.5C39.4283 39.75 40.3185 39.3813 40.9749 38.7249C41.6313 38.0685 42 37.1783 42 36.25V31C42 30.0717 41.6313 29.1815 40.9749 28.5251C40.3185 27.8687 39.4283 27.5 38.5 27.5H33.25V36.25Z" stroke="#F2994A" stroke-width="4" stroke-linecap="round" stroke-linejoin="round"/>
</svg>
